<svg xmlns="http://www.w3.org/2000/svg" version="1.1" xmlns:xlink="http://www.w3.org/1999/xlink" xmlns:svgjs="http://svgjs.com/svgjs" width="1440" height="560" preserveAspectRatio="none" viewBox="0 0 1440 560"><g mask="url(&quot;#SvgjsMask1750&quot;)" fill="none"><rect width="1440" height="560" x="0" y="0" fill="url(#SvgjsLinearGradient1751)"></rect><path d="M0 0L239.69 0L0 201.99z" fill="rgba(255, 255, 255, .1)"></path><path d="M0 201.99L239.69 0L831.5699999999999 0L0 350.36z" fill="rgba(255, 255, 255, .075)"></path><path d="M0 350.36L831.5699999999999 0L1136.82 0L0 429.1z" fill="rgba(255, 255, 255, .05)"></path><path d="M0 429.1L1136.82 0L1280.6999999999998 0L0 519.79z" fill="rgba(255, 255, 255, .025)"></path><path d="M1440 560L1367.73 560L1440 521.52z" fill="rgba(0, 0, 0, .1)"></path><path d="M1440 521.52L1367.73 560L702.29 560L1440 320.30999999999995z" fill="rgba(0, 0, 0, .075)"></path><path d="M1440 320.31L702.29 560L424.34 560L1440 258.93z" fill="rgba(0, 0, 0, .05)"></path><path d="M1440 258.93L424.3399999999999 560L283.31999999999994 560L1440 87.22z" fill="rgba(0, 0, 0, .025)"></path></g><defs><mask id="SvgjsMask1750"><rect width="1440" height="560" fill="#ffffff"></rect></mask><linearGradient x1="15.28%" y1="-39.29%" x2="84.72%" y2="139.29%" gradientUnits="userSpaceOnUse" id="SvgjsLinearGradient1751"><stop stop-color="rgba(220, 225, 229, 1)" offset="0"></stop><stop stop-color="rgba(139, 150, 156, 1)" offset="1"></stop></linearGradient></defs></svg>